<mxfile host="app.diagrams.net" agent="Mozilla/5.0 (Windows NT 10.0; Win64; x64) AppleWebKit/537.36 (KHTML, like Gecko) Chrome/109.0.0.0 Safari/537.36" version="25.0.3">
  <diagram name="Page-1" id="10a91c8b-09ff-31b1-d368-03940ed4cc9e">
    <mxGraphModel dx="1257" dy="626" grid="1" gridSize="10" guides="1" tooltips="1" connect="1" arrows="1" fold="1" page="1" pageScale="1" pageWidth="1100" pageHeight="850" background="none" math="0" shadow="0">
      <root>
        <mxCell id="0" />
        <mxCell id="1" parent="0" />
        <mxCell id="6gsKYHCL6tPzdCx4lnGJ-22" value="" style="edgeStyle=orthogonalEdgeStyle;rounded=0;orthogonalLoop=1;jettySize=auto;html=1;" edge="1" parent="1" source="6gsKYHCL6tPzdCx4lnGJ-12" target="6gsKYHCL6tPzdCx4lnGJ-21">
          <mxGeometry relative="1" as="geometry" />
        </mxCell>
        <mxCell id="6gsKYHCL6tPzdCx4lnGJ-12" value="Usuario" style="shape=umlActor;verticalLabelPosition=bottom;verticalAlign=top;html=1;outlineConnect=0;" vertex="1" parent="1">
          <mxGeometry x="30" y="60" width="50" height="100" as="geometry" />
        </mxCell>
        <mxCell id="6gsKYHCL6tPzdCx4lnGJ-19" value="" style="edgeStyle=orthogonalEdgeStyle;rounded=0;orthogonalLoop=1;jettySize=auto;html=1;" edge="1" parent="1" source="6gsKYHCL6tPzdCx4lnGJ-13" target="6gsKYHCL6tPzdCx4lnGJ-16">
          <mxGeometry relative="1" as="geometry" />
        </mxCell>
        <mxCell id="6gsKYHCL6tPzdCx4lnGJ-13" value="Ingresa a un lugar publico&amp;nbsp;" style="ellipse;whiteSpace=wrap;html=1;" vertex="1" parent="1">
          <mxGeometry x="320" y="70" width="120" height="80" as="geometry" />
        </mxCell>
        <mxCell id="6gsKYHCL6tPzdCx4lnGJ-20" value="" style="edgeStyle=orthogonalEdgeStyle;rounded=0;orthogonalLoop=1;jettySize=auto;html=1;" edge="1" parent="1" source="6gsKYHCL6tPzdCx4lnGJ-16" target="6gsKYHCL6tPzdCx4lnGJ-17">
          <mxGeometry relative="1" as="geometry" />
        </mxCell>
        <mxCell id="6gsKYHCL6tPzdCx4lnGJ-16" value="Ingresa al bebedero" style="ellipse;whiteSpace=wrap;html=1;" vertex="1" parent="1">
          <mxGeometry x="490" y="70" width="120" height="80" as="geometry" />
        </mxCell>
        <mxCell id="6gsKYHCL6tPzdCx4lnGJ-17" value="Beber agua&amp;nbsp;" style="ellipse;whiteSpace=wrap;html=1;" vertex="1" parent="1">
          <mxGeometry x="490" y="220" width="120" height="80" as="geometry" />
        </mxCell>
        <mxCell id="6gsKYHCL6tPzdCx4lnGJ-23" value="" style="edgeStyle=orthogonalEdgeStyle;rounded=0;orthogonalLoop=1;jettySize=auto;html=1;" edge="1" parent="1" source="6gsKYHCL6tPzdCx4lnGJ-21" target="6gsKYHCL6tPzdCx4lnGJ-13">
          <mxGeometry relative="1" as="geometry" />
        </mxCell>
        <mxCell id="6gsKYHCL6tPzdCx4lnGJ-21" value="Ingresa al municipio" style="ellipse;whiteSpace=wrap;html=1;" vertex="1" parent="1">
          <mxGeometry x="140" y="70" width="120" height="80" as="geometry" />
        </mxCell>
        <mxCell id="6gsKYHCL6tPzdCx4lnGJ-26" value="Ingreso al bebedero" style="swimlane;whiteSpace=wrap;html=1;" vertex="1" parent="1">
          <mxGeometry x="20" y="20" width="760" height="750" as="geometry" />
        </mxCell>
        <mxCell id="6gsKYHCL6tPzdCx4lnGJ-37" value="Reporte de fallo" style="swimlane;whiteSpace=wrap;html=1;" vertex="1" parent="6gsKYHCL6tPzdCx4lnGJ-26">
          <mxGeometry y="370" width="760" height="380" as="geometry" />
        </mxCell>
        <mxCell id="6gsKYHCL6tPzdCx4lnGJ-29" value="Supervisor" style="shape=umlActor;verticalLabelPosition=bottom;verticalAlign=top;html=1;outlineConnect=0;" vertex="1" parent="6gsKYHCL6tPzdCx4lnGJ-37">
          <mxGeometry x="20" y="60" width="50" height="100" as="geometry" />
        </mxCell>
        <mxCell id="6gsKYHCL6tPzdCx4lnGJ-36" value="Reportar problema" style="ellipse;whiteSpace=wrap;html=1;" vertex="1" parent="6gsKYHCL6tPzdCx4lnGJ-37">
          <mxGeometry x="270" y="70" width="120" height="80" as="geometry" />
        </mxCell>
        <mxCell id="6gsKYHCL6tPzdCx4lnGJ-28" value="" style="edgeStyle=orthogonalEdgeStyle;rounded=0;orthogonalLoop=1;jettySize=auto;html=1;" edge="1" source="6gsKYHCL6tPzdCx4lnGJ-29" target="6gsKYHCL6tPzdCx4lnGJ-36" parent="6gsKYHCL6tPzdCx4lnGJ-37">
          <mxGeometry relative="1" as="geometry" />
        </mxCell>
        <mxCell id="6gsKYHCL6tPzdCx4lnGJ-31" value="Verificar el estado" style="ellipse;whiteSpace=wrap;html=1;" vertex="1" parent="6gsKYHCL6tPzdCx4lnGJ-37">
          <mxGeometry x="460" y="70" width="120" height="80" as="geometry" />
        </mxCell>
        <mxCell id="6gsKYHCL6tPzdCx4lnGJ-35" value="" style="edgeStyle=orthogonalEdgeStyle;rounded=0;orthogonalLoop=1;jettySize=auto;html=1;" edge="1" source="6gsKYHCL6tPzdCx4lnGJ-36" target="6gsKYHCL6tPzdCx4lnGJ-31" parent="6gsKYHCL6tPzdCx4lnGJ-37">
          <mxGeometry relative="1" as="geometry" />
        </mxCell>
        <mxCell id="6gsKYHCL6tPzdCx4lnGJ-33" value="mantenimiento" style="ellipse;whiteSpace=wrap;html=1;" vertex="1" parent="6gsKYHCL6tPzdCx4lnGJ-37">
          <mxGeometry x="610" y="70" width="120" height="80" as="geometry" />
        </mxCell>
        <mxCell id="6gsKYHCL6tPzdCx4lnGJ-30" value="" style="edgeStyle=orthogonalEdgeStyle;rounded=0;orthogonalLoop=1;jettySize=auto;html=1;" edge="1" source="6gsKYHCL6tPzdCx4lnGJ-31" target="6gsKYHCL6tPzdCx4lnGJ-33" parent="6gsKYHCL6tPzdCx4lnGJ-37">
          <mxGeometry relative="1" as="geometry" />
        </mxCell>
        <mxCell id="6gsKYHCL6tPzdCx4lnGJ-43" style="edgeStyle=orthogonalEdgeStyle;rounded=0;orthogonalLoop=1;jettySize=auto;html=1;" edge="1" parent="6gsKYHCL6tPzdCx4lnGJ-37" source="6gsKYHCL6tPzdCx4lnGJ-34">
          <mxGeometry relative="1" as="geometry">
            <mxPoint x="190" y="270" as="targetPoint" />
          </mxGeometry>
        </mxCell>
        <mxCell id="6gsKYHCL6tPzdCx4lnGJ-34" value="Informar dispnibilidad" style="ellipse;whiteSpace=wrap;html=1;" vertex="1" parent="6gsKYHCL6tPzdCx4lnGJ-37">
          <mxGeometry x="610" y="230" width="120" height="80" as="geometry" />
        </mxCell>
        <mxCell id="6gsKYHCL6tPzdCx4lnGJ-32" value="" style="edgeStyle=orthogonalEdgeStyle;rounded=0;orthogonalLoop=1;jettySize=auto;html=1;" edge="1" source="6gsKYHCL6tPzdCx4lnGJ-33" target="6gsKYHCL6tPzdCx4lnGJ-34" parent="6gsKYHCL6tPzdCx4lnGJ-37">
          <mxGeometry relative="1" as="geometry" />
        </mxCell>
        <mxCell id="6gsKYHCL6tPzdCx4lnGJ-40" value="Usuario" style="shape=umlActor;verticalLabelPosition=bottom;verticalAlign=top;html=1;outlineConnect=0;" vertex="1" parent="6gsKYHCL6tPzdCx4lnGJ-37">
          <mxGeometry x="130" y="230" width="50" height="100" as="geometry" />
        </mxCell>
        <mxCell id="6gsKYHCL6tPzdCx4lnGJ-42" style="edgeStyle=orthogonalEdgeStyle;rounded=0;orthogonalLoop=1;jettySize=auto;html=1;exitX=0.5;exitY=0;exitDx=0;exitDy=0;exitPerimeter=0;entryX=1;entryY=0.3333333333333333;entryDx=0;entryDy=0;entryPerimeter=0;" edge="1" parent="6gsKYHCL6tPzdCx4lnGJ-37" source="6gsKYHCL6tPzdCx4lnGJ-40" target="6gsKYHCL6tPzdCx4lnGJ-29">
          <mxGeometry relative="1" as="geometry" />
        </mxCell>
      </root>
    </mxGraphModel>
  </diagram>
</mxfile>
